<?xml version="1.0" encoding="UTF-8"?>
<svg id="Warstwa_1" data-name="Warstwa 1" xmlns="http://www.w3.org/2000/svg" viewBox="0 0 594.56 594.56">
  <defs>
    <style>
      .cls-1, .cls-2 {
        stroke-width: 0px;
      }

      .cls-2 {
        fill: #fff;
      }
    </style>
  </defs>
  <path class="cls-2" d="M594.56,594.56H0V0c198.19,0,396.37,0,594.56,0v594.56ZM389.78,405.42c-.96.24-1.7.47-2.46.62-6.43,1.3-12.86,2.59-19.29,3.89-5.37,1.09-10.75,2.18-16.11,3.31-5.27,1.11-10.52,2.29-15.78,3.41-5.84,1.24-11.7,2.45-17.55,3.66-6.33,1.31-12.66,2.6-18.98,3.92-5.08,1.06-10.15,2.16-15.22,3.22-6.52,1.36-13.04,2.69-19.56,4.05-5.75,1.2-11.49,2.46-17.25,3.64-6.14,1.26-12.29,2.44-18.44,3.68-1.25.25-1.58.73-1.41,2.14.17,1.36.46,2.71.74,4.05,1.34,6.52,2.67,13.05,4.05,19.56.56,2.67,1.22,5.31,1.85,8.01.71,0,1.21.09,1.67-.01,5.06-1.12,10.11-2.34,15.18-3.41,9.11-1.91,18.24-3.69,27.35-5.6,6.9-1.44,13.77-3.05,20.67-4.48,7.29-1.51,14.63-2.84,21.92-4.35,7-1.45,13.95-3.12,20.95-4.57,8.25-1.71,16.53-3.26,24.78-4.95,8.44-1.72,16.87-3.5,25.3-5.28,1.69-.36,3.35-.86,5.3-1.36-2.23-10.24-4.39-20.18-6.59-30.12-.23-1.02-.72-1.98-1.12-3.04ZM363.93,278.54c-1.08.13-1.96.17-2.81.36-8.9,1.94-17.79,3.93-26.69,5.86-4.88,1.06-9.78,2.01-14.66,3.05-3.44.73-6.86,1.59-10.3,2.29-3.93.8-7.9,1.43-11.83,2.24-4.8.98-9.57,2.1-14.36,3.11-4.89,1.02-9.79,1.98-14.69,2.97-3.16.64-6.33,1.28-9.49,1.93-3.07.63-6.14,1.26-9.2,1.91-5.27,1.11-10.53,2.24-15.79,3.35-5.36,1.13-10.73,2.23-16.1,3.37-2.97.63-5.92,1.35-8.89,1.94-2.67.54-5.36.96-8.19,1.46,2.29,11.12,4.54,22.02,6.85,33.19,1.18-.15,2.25-.22,3.28-.43,5.18-1.06,10.36-2.16,15.54-3.23,6.33-1.31,12.66-2.6,18.99-3.91,5.18-1.07,10.35-2.16,15.53-3.24,5.37-1.12,10.74-2.23,16.1-3.35,5.08-1.06,10.16-2.13,15.25-3.19,5.47-1.14,10.94-2.26,16.4-3.42,4.79-1.01,9.57-2.09,14.37-3.1,9.2-1.93,18.41-3.83,27.62-5.73,5.28-1.09,10.57-2.08,15.83-3.25,1.45-.32,3.16-.15,4.11-1.32-2.31-11.04-4.56-21.86-6.86-32.86ZM220.22,404.48c54.34-11.14,108.43-22.57,162.79-33.87-.51-4.02-1.5-7.9-2.33-11.81-.83-3.9-1.33-7.87-2.8-11.76-2.46.38-4.69.67-6.9,1.08-3.47.64-6.92,1.35-10.38,2.05-6.23,1.28-12.46,2.58-18.69,3.88-5.18,1.08-10.35,2.18-15.53,3.25-6.33,1.31-12.67,2.59-18.99,3.91-4.98,1.04-9.96,2.14-14.94,3.21-7.18,1.54-14.36,3.07-21.55,4.6-5.07,1.08-10.14,2.17-15.23,3.19-3.45.69-6.94,1.23-10.4,1.92-7.49,1.5-14.97,3.04-22.43,4.62-2.55.54-5.07,1.28-7.69,1.96,1.71,8.03,3.36,15.76,5.07,23.76ZM359.41,172.48c-3.8.82-7.15,1.56-10.5,2.26-6.34,1.32-12.69,2.62-19.03,3.94-5.19,1.08-10.38,2.19-15.57,3.27-5.38,1.13-10.77,2.25-16.15,3.37-5.96,1.24-11.92,2.49-17.89,3.72-7.21,1.49-14.43,2.96-21.64,4.47-6.82,1.43-13.63,2.94-20.46,4.37-9.9,2.08-19.8,4.13-29.71,6.18-7.5,1.55-15,3.07-22.5,4.59-7.03,1.43-14.06,2.83-21.09,4.26-1.15.23-1.52.79-1.29,1.9.47,2.21,1.02,4.4,1.49,6.61,1.27,6.06,2.51,12.12,3.78,18.18,1.31,6.25,2.65,12.49,3.95,18.73.7,3.36,1.35,6.74,2.02,10.11.61,3.08,1.2,6.17,1.86,9.25.18.82.59,1.58.93,2.44,8.34-1.8,16.47-3.63,24.64-5.31,11.26-2.31,22.55-4.48,33.81-6.77,7.6-1.55,15.17-3.21,22.77-4.8,14.13-2.95,28.27-5.87,42.4-8.82,11.35-2.37,22.68-4.76,34.03-7.13,11.44-2.38,22.89-4.7,34.31-7.18,1.24-.27,2.86,0,3.8-1.5-.14-.42-.34-.86-.44-1.33-1.43-6.92-2.86-13.84-4.27-20.77-1.08-5.29-2.11-10.59-3.19-15.88-1.31-6.45-2.63-12.89-3.99-19.33-.61-2.86-1.33-5.7-2.07-8.84ZM121.1,307.19c3.06,16.3,6.87,32.42,10.03,48.75-1.74.46-3.41.9-5.25,1.38.95,6.78,2.63,13.13,4.01,19.53,1.38,6.39,2.42,12.86,4.16,19.27h3.2c.28,1.48.51,2.83.8,4.17,1.77,8.26,3.56,16.51,5.33,24.76,1.42,6.63,2.78,13.26,4.22,19.88.28,1.31.79,2.58,1.19,3.85,1.22.11,2.18.21,3.25.31.46,1.6,1.01,3.18,1.35,4.8,1.03,4.89,1.95,9.81,2.98,14.71,1.35,6.44,2.77,12.86,4.14,19.29,1.03,4.8,1.93,9.62,3.09,14.38.48,1.94.3,4.13,1.72,5.83,1.72-.32,3.34-.61,4.96-.94,5.84-1.2,11.7-2.35,17.52-3.68,1.47-.34,3.12-.63,4.25-2.14-.83-3.86-1.67-7.78-2.51-11.7-1.91-8.92-3.83-17.84-5.73-26.77-1.55-7.3-3.05-14.61-4.61-21.9-1.19-5.57-2.46-11.12-3.69-16.69-1.73-7.85-3.47-15.71-5.16-23.57-.39-1.82-.64-3.67-.91-5.51-.37-2.57-.52-5.18-.83-7.74-.57-4.75-1.99-9.4-3.03-14.09-1.1-4.99-2.15-9.98-3.25-14.97-1.33-6.04-2.7-12.06-4-18.11-1.08-4.99-2.06-10-3.13-15-1.07-4.99-2.2-9.97-3.31-14.95-1.07-4.79-2.19-9.56-3.23-14.36-.96-4.41-1.81-8.84-2.76-13.25-1.21-5.57-2.5-11.11-3.71-16.68-1.92-8.82-3.81-17.65-5.7-26.47-.9-4.22-1.76-8.45-2.66-12.67-.2-.93-.55-1.84-.88-2.94-8.72,1.96-17.21,3.87-25.98,5.84,2.18,12.6,5.44,24.92,7.64,37.63-.83.23-1.67.45-2.51.68-1.4.38-1.66.75-1.39,2.07,1.17,5.67,2.35,11.35,3.57,17.01.09.41.54.75.68.92,1.58-.16,2.91-.29,4.33-.43,1.22,6.41,2.8,12.47,3.88,18.59-.77.34-1.29.58-2.05.91ZM400.07,240.87c.06,1.17-.03,2.17.17,3.09,2.1,9.49,4.27,18.96,6.37,28.45.78,3.54,1.4,7.11,2.14,10.67,1.27,6.15,2.54,12.31,3.86,18.45,1.52,7.1,3.11,14.19,4.65,21.29,1.41,6.53,2.81,13.06,4.2,19.59,1.54,7.2,3.04,14.41,4.6,21.6.79,3.65,1.74,7.26,2.52,10.91,1,4.7,1.87,9.43,2.87,14.14,1.4,6.63,2.85,13.24,4.28,19.86,1.72,7.96,3.43,15.93,5.14,23.9,1.28,5.95,2.53,11.91,3.83,17.86.18.82.56,1.59.88,2.47,8.99-1.94,17.7-3.82,26.7-5.76-1.42-6.74-2.81-13.32-4.2-19.89.44-.23.69-.39.95-.5,1.88-.77,1.89-.77,1.47-2.74-1.41-6.63-2.83-13.25-4.25-19.88-1.03-4.8-2.05-9.61-3.07-14.41-1.5-7.11-2.98-14.22-4.51-21.32-1.06-4.89-2.21-9.76-3.27-14.66-.75-3.45-1.39-6.93-2.11-10.38-1.47-7.02-2.95-14.04-4.45-21.05-.57-2.67-1.25-5.31-1.87-7.94-1.23-.07-2.18-.12-3.21-.17-1.23-5.77-2.43-11.39-3.62-16.99,1.1-.49,1.95-.86,2.86-1.26-.37-1.59-.73-3.01-1.04-4.44-1.26-5.75-2.53-11.5-3.76-17.26-1.02-4.8-1.97-9.62-3.01-14.41-.2-.92-.37-1.98-1.4-2.46-1.05.13-2.08.27-3.32.43-1.69-7.64-3.34-15.09-5.01-22.67-8.56,1.85-16.89,3.65-25.39,5.49ZM91.61,169.51c1.12-.84,2.05-1.41,2.83-2.14,6.24-5.78,12.47-11.58,18.66-17.41,1.34-1.26,2.83-2.15,4.61-2.48,2.02-.38,4.07-.59,6.08-1,5.87-1.21,11.72-2.5,17.58-3.73,8.16-1.72,16.33-3.42,24.5-5.13,6.25-1.3,12.5-2.58,18.75-3.91,7.59-1.61,15.16-3.27,22.74-4.91,6.91-1.49,13.81-3.01,20.73-4.45,9.03-1.88,18.09-3.67,27.12-5.55,10.19-2.13,20.36-4.31,30.54-6.51,1.5-.32,2.96-.84,4.6-1.31-1.9-7.57-2.86-15.08-5.07-22.3-5.55,1.11-10.84,2.17-16.25,3.26-.1-.3-.21-.65-.34-1-.37-1-1.03-1.27-2.1-1.04-6.33,1.37-12.68,2.66-19.02,4.01-6.43,1.37-12.86,2.78-19.29,4.15-7.87,1.68-15.73,3.44-23.63,4.95-3.28.63-6.5,2.41-10.03,1.05-.38-.15-.94.17-1.42.27-10.94,2.28-21.88,4.55-32.81,6.86-1.04.22-2.21.49-2.98,1.14-.89.75-1.76,1.13-2.87,1.31-1.64.26-3.25.72-4.88,1.06-6.34,1.33-12.69,2.63-19.04,3.96-5.96,1.25-11.91,2.53-17.86,3.81-5.18,1.11-10.36,2.24-15.54,3.37-5.75,1.26-11.52,2.44-17.23,3.83-2.04.5-4.23.66-6.19,1.86,6.25,12.54,11.45,25.43,17.81,37.95ZM247.87,511.39c1.91,9.25,3.72,17.97,5.55,26.83,3.01-.53,5.72-.93,8.41-1.48,8.17-1.68,16.33-3.43,24.5-5.13,9.23-1.93,18.46-3.85,27.69-5.74,6.35-1.3,12.71-2.54,19.06-3.85,5.48-1.12,10.94-2.29,16.42-3.44,5.76-1.21,11.52-2.43,17.29-3.6,8.08-1.64,16.17-3.2,24.24-4.89,2-.42,2.89-1,2.34-3.51-1.43-6.42-2.64-12.89-3.98-19.33-.31-1.5-.84-2.97-1.29-4.55-9.69,1.34-18.94,3.61-28.27,5.45-9.34,1.84-18.64,3.9-27.96,5.86-9.32,1.96-18.62,3.98-27.95,5.89-9.33,1.91-18.69,3.66-28.03,5.58-9.3,1.91-18.57,3.92-28.02,5.92ZM427.43,230.37c-.78-3.73-1.52-7.28-2.26-10.83-1.94-9.43-3.93-18.85-5.76-28.3-.34-1.76-1.2-3.54-.73-5.38,2.63-.59,5.08-1.14,7.53-1.69-.35-2.05-.64-3.79-.94-5.53-.42-2.42-.87-4.84-1.27-7.26-.83-5.04-1.64-10.09-2.43-15.14-.16-1.05-.7-1.58-1.72-1.7-.56-.06-1.13-.13-1.68-.2-.67-3.16-1.31-6.13-1.93-9.11-1.92-9.23-3.85-18.46-5.74-27.69-.73-3.56-1.28-7.16-2.12-10.69-.65-2.73-.81-5.61-2.05-8.12-.76,0-1.37-.1-1.93.02-4.81.98-9.62,1.98-14.43,3.01-2.59.55-5.19,1.1-7.75,1.78-2.09.55-2.64,1.48-2.22,3.48,1.46,7.01,2.95,14.02,4.45,21.03.41,1.92.94,3.81,1.34,5.74.95,4.61,1.86,9.24,2.79,13.86.82,4.1,1.65,8.21,2.48,12.34-1.89.49-3.49.9-5.32,1.37.3,2.09.51,4.03.87,5.93.89,4.83,1.84,9.64,2.79,14.46,1.12,5.68,2.28,11.35,3.38,17.04.71,3.66,1.36,7.34,2.02,11.01.66,3.67,1.27,7.36,1.94,11.03.72,3.96,1.46,7.91,2.24,11.86.24,1.22.63,2.42.94,3.6,11.78-1.85,25.59-4.8,27.51-5.93ZM292.95,93.38c.56,5.83,1.8,11.22,3.29,16.66,8.24-1.73,16.2-3.39,24.16-5.09,10.66-2.27,21.32-4.56,31.98-6.83,2.11-.45,4.53-.39,6.27-1.44,1.73-1.05,2.8-3.2,4.16-4.87.19-.23.39-.45.57-.68.9-1.14,1.17-2.25.8-3.82-1.62-6.98-2.99-14.02-4.51-21.03-.49-2.28-1.16-4.52-1.81-7.06-7.15,1.24-13.86,3.06-20.66,4.5-6.8,1.43-13.53,3.19-20.52,4.86,1.21,6.43,2.37,12.56,3.58,18.98-9.13,1.95-18.13,3.87-27.31,5.82ZM403.36,477.59c1.58,9.33,3.71,18.06,5.47,27.13,15.26-3.5,30.45-5.85,45.33-9.67,0-.74.08-1.24-.01-1.71-.54-2.69-1.13-5.38-1.69-8.07-1.03-5-2.01-10.01-3.07-15.01-.38-1.79-1.09-2.21-2.96-1.83-4.33.88-8.64,1.84-12.97,2.74-6.15,1.29-12.31,2.54-18.46,3.84-3.73.79-7.45,1.64-11.64,2.56Z"/>
  <path class="cls-1" d="M389.78,405.42c.4,1.06.89,2.02,1.12,3.04,2.2,9.93,4.35,19.88,6.59,30.12-1.95.51-3.61,1.01-5.3,1.36-8.43,1.78-16.86,3.56-25.3,5.28-8.25,1.68-16.53,3.23-24.78,4.95-7,1.45-13.95,3.11-20.95,4.57-7.29,1.52-14.63,2.84-21.92,4.35-6.9,1.43-13.77,3.04-20.67,4.48-9.11,1.91-18.24,3.69-27.35,5.6-5.08,1.06-10.12,2.28-15.18,3.41-.46.1-.96.01-1.67.01-.63-2.7-1.29-5.34-1.85-8.01-1.38-6.52-2.71-13.04-4.05-19.56-.28-1.34-.56-2.69-.74-4.05-.18-1.4.16-1.89,1.41-2.14,6.14-1.24,12.3-2.42,18.44-3.68,5.76-1.18,11.5-2.44,17.25-3.64,6.52-1.36,13.04-2.69,19.56-4.05,5.08-1.06,10.15-2.16,15.22-3.22,6.32-1.32,12.65-2.61,18.98-3.92,5.85-1.21,11.7-2.42,17.55-3.66,5.26-1.12,10.51-2.3,15.78-3.41,5.36-1.13,10.74-2.22,16.11-3.31,6.43-1.3,12.86-2.59,19.29-3.89.76-.15,1.51-.38,2.46-.62Z"/>
  <path class="cls-1" d="M363.93,278.54c2.3,11,4.56,21.82,6.86,32.86-.95,1.18-2.66,1-4.11,1.32-5.26,1.16-10.56,2.16-15.83,3.25-9.21,1.9-18.42,3.8-27.62,5.73-4.79,1-9.57,2.08-14.37,3.1-5.46,1.16-10.93,2.28-16.4,3.42-5.08,1.06-10.17,2.13-15.25,3.19-5.37,1.12-10.74,2.24-16.1,3.35-5.18,1.08-10.35,2.17-15.53,3.24-6.33,1.31-12.66,2.6-18.99,3.91-5.18,1.07-10.35,2.17-15.54,3.23-1.03.21-2.09.28-3.28.43-2.3-11.17-4.55-22.08-6.85-33.19,2.83-.5,5.52-.92,8.19-1.46,2.97-.6,5.92-1.31,8.89-1.94,5.36-1.14,10.73-2.24,16.1-3.37,5.27-1.11,10.53-2.24,15.79-3.35,3.06-.65,6.13-1.28,9.2-1.91,3.16-.65,6.33-1.29,9.49-1.93,4.9-.99,9.8-1.94,14.69-2.97,4.79-1,9.56-2.12,14.36-3.11,3.93-.81,7.9-1.44,11.83-2.24,3.45-.7,6.86-1.56,10.3-2.29,4.88-1.04,9.78-1.99,14.66-3.05,8.9-1.93,17.79-3.92,26.69-5.86.85-.19,1.73-.22,2.81-.36Z"/>
  <path class="cls-1" d="M220.22,404.48c-1.71-8-3.36-15.73-5.07-23.76,2.63-.67,5.14-1.41,7.69-1.96,7.47-1.59,14.95-3.12,22.43-4.62,3.46-.69,6.94-1.23,10.4-1.92,5.08-1.02,10.15-2.12,15.23-3.19,7.18-1.53,14.36-3.06,21.55-4.6,4.98-1.07,9.95-2.16,14.94-3.21,6.33-1.33,12.66-2.6,18.99-3.91,5.18-1.07,10.35-2.17,15.53-3.25,6.23-1.3,12.46-2.6,18.69-3.88,3.45-.71,6.91-1.41,10.38-2.05,2.21-.41,4.45-.7,6.9-1.08,1.47,3.89,1.97,7.86,2.8,11.76.83,3.91,1.82,7.78,2.33,11.81-54.36,11.29-108.45,22.73-162.79,33.87Z"/>
  <path class="cls-1" d="M359.41,172.48c.74,3.14,1.47,5.97,2.07,8.84,1.36,6.44,2.68,12.88,3.99,19.33,1.08,5.29,2.11,10.59,3.19,15.88,1.41,6.93,2.84,13.85,4.27,20.77.1.47.3.92.44,1.33-.94,1.51-2.56,1.23-3.8,1.5-11.42,2.48-22.87,4.8-34.31,7.18-11.35,2.37-22.68,4.76-34.03,7.13-14.13,2.95-28.27,5.87-42.4,8.82-7.59,1.58-15.17,3.25-22.77,4.8-11.26,2.29-22.55,4.46-33.81,6.77-8.17,1.68-16.31,3.51-24.64,5.31-.34-.87-.75-1.63-.93-2.44-.66-3.07-1.25-6.16-1.86-9.25-.67-3.37-1.32-6.75-2.02-10.11-1.3-6.25-2.64-12.49-3.95-18.73-1.27-6.06-2.5-12.12-3.78-18.18-.46-2.21-1.02-4.4-1.49-6.61-.24-1.11.13-1.66,1.29-1.9,7.03-1.43,14.06-2.84,21.09-4.26,7.5-1.52,15.01-3.04,22.5-4.59,9.91-2.04,19.81-4.1,29.71-6.18,6.82-1.43,13.63-2.94,20.46-4.37,7.21-1.51,14.43-2.98,21.64-4.47,5.96-1.23,11.93-2.48,17.89-3.72,5.38-1.12,10.77-2.24,16.15-3.37,5.19-1.09,10.38-2.19,15.57-3.27,6.34-1.32,12.69-2.61,19.03-3.94,3.35-.7,6.7-1.44,10.5-2.26ZM226.29,201.59c-20.59,4.28-40.9,8.5-61.29,12.74.51,2.65,1.01,5.32,1.55,7.98,1,4.99,2.02,9.97,3.05,14.95.16.78.66,1.21,1.49,1.1.48-.06.95-.22,1.42-.32,5.81-1.26,11.62-2.55,17.45-3.77,5.44-1.14,10.9-2.2,16.35-3.31,5.35-1.09,10.7-2.19,16.05-3.3,2.94-.61,5.88-1.26,8.98-1.93-1.7-8.13-3.36-16.03-5.06-24.15ZM274.11,258.61c12.97-2.68,25.41-5.26,37.96-7.86-2.72-13.12-5.39-26.05-8.09-39.08-12.72,2.65-25.3,5.27-38.01,7.92,1.34,6.53,2.65,13.01,4,19.48,1.35,6.47,2.74,12.93,4.14,19.53ZM364.28,201.07c-12.63,2.65-24.92,5.23-37.25,7.82,2.63,12.56,5.21,24.85,7.79,37.16,6.32-1.38,12.32-2.79,18.37-3.98,6.14-1.21,12.28-2.36,18.63-3.94-2.25-12.46-5.25-24.6-7.53-37.05ZM228.94,227.32c-11.88,2.47-23.43,4.87-35.25,7.32,2.7,12.96,5.38,25.84,8.1,38.94,6.05-.93,11.83-2.41,17.65-3.61,5.91-1.22,11.85-2.33,17.76-3.74-2.78-13.1-5.5-25.89-8.27-38.91ZM229.96,227.21c2.77,13.06,5.47,25.8,8.23,38.8,11.74-2.21,23.16-4.81,34.92-7.18-2.73-13.03-5.42-25.9-8.16-38.97-11.76,2.42-23.3,4.68-34.99,7.35ZM337.58,178.38c-12.82,2.69-25.33,5.32-37.88,7.95,2.04,8.78,3.41,17.42,5.57,26.03,12.79-2.7,25.28-5.34,37.95-8.02-2.15-8.8-3.48-17.46-5.64-25.97ZM170.36,239.53c1.36,7.17,2.62,14.08,4,20.97,1.1,5.47,2.35,10.91,3.5,16.36.23,1.1.82,1.5,1.88,1.35.39-.05.79-.05,1.18-.12,3.84-.77,7.68-1.52,11.51-2.34,2.82-.6,5.62-1.3,8.42-1.95-2.93-13.1-5.29-26.03-8.27-38.91-7.61,1.59-14.93,3.12-22.22,4.64ZM264.47,193.63c1.75,8.05,3.1,16.08,5.13,24.04,2.58-.47,4.88-.86,7.18-1.32,2.3-.45,4.58-.96,6.87-1.46,2.19-.48,4.37-1,6.57-1.44,2.3-.46,4.66-.67,6.9-1.33,2.19-.65,4.65-.41,6.61-1.84-1.68-7.94-3.32-15.73-5.02-23.78-11.37,2.37-22.56,4.7-34.23,7.13ZM313.09,250.24c.74-.03,1.53.03,2.27-.12,5.57-1.13,11.12-2.31,16.69-3.47,1.3-.27,1.69-.75,1.44-2.06-.45-2.3-.99-4.58-1.47-6.87-.9-4.3-1.77-8.61-2.67-12.91-1.08-5.14-2.17-10.29-3.25-15.4-.82,0-1.53-.12-2.19.02-5.55,1.13-11.09,2.32-16.63,3.48-1.45.3-1.87.8-1.59,2.24,1.01,5.08,2.01,10.16,3.08,15.22,1.4,6.58,2.86,13.14,4.33,19.88ZM338.76,178.15c1.77,8.7,3.49,17.17,5.27,25.91,6.71-1,13.19-2.64,19.93-3.97-.91-4.49-1.67-8.82-2.7-13.09-1.03-4.24-1.37-8.65-3-12.88-6.51,1.34-12.81,2.64-19.5,4.02ZM227.3,201.4c.98,4.84,1.89,9.41,2.83,13.98.57,2.77,1.2,5.53,1.77,8.3.3,1.44.82,1.88,2.24,1.59,4.78-.97,9.55-1.98,14.32-2.98.95-.2,1.3-.82,1.19-1.73-.04-.39-.18-.76-.25-1.14-.91-4.39-1.79-8.79-2.73-13.18-.59-2.75-1.26-5.48-1.95-8.44-5.88,1.22-11.52,2.39-17.43,3.61ZM268.47,218c-.54-2.74-1.05-5.41-1.6-8.08-.57-2.77-.98-5.59-1.82-8.27-.79-2.55-.51-5.4-1.98-7.67-3,.59-5.8,1.02-8.54,1.72-2.79.7-5.79.66-8.6,2.17,1.71,8.03,3.39,15.92,5.07,23.82,6.03-1.27,11.74-2.48,17.48-3.69Z"/>
  <path class="cls-1" d="M121.1,307.19c.75-.33,1.27-.57,2.05-.91-1.08-6.12-2.66-12.18-3.88-18.59-1.42.14-2.75.27-4.33.43-.13-.17-.59-.51-.68-.92-1.22-5.66-2.39-11.34-3.57-17.01-.27-1.32-.02-1.69,1.39-2.07.84-.23,1.67-.46,2.51-.68-2.21-12.72-5.46-25.03-7.64-37.63,8.77-1.97,17.26-3.88,25.98-5.84.34,1.11.68,2.01.88,2.94.91,4.22,1.76,8.45,2.66,12.67,1.89,8.83,3.78,17.65,5.7,26.47,1.21,5.56,2.5,11.11,3.71,16.68.96,4.41,1.81,8.84,2.76,13.25,1.04,4.79,2.16,9.57,3.23,14.36,1.12,4.98,2.24,9.96,3.31,14.95,1.07,4.99,2.05,10,3.13,15,1.3,6.04,2.68,12.07,4,18.11,1.1,4.99,2.15,9.99,3.25,14.97,1.04,4.7,2.46,9.34,3.03,14.09.31,2.55.46,5.17.83,7.74.26,1.84.52,3.69.91,5.51,1.69,7.86,3.43,15.71,5.16,23.57,1.23,5.56,2.49,11.12,3.69,16.69,1.56,7.3,3.06,14.6,4.61,21.9,1.9,8.92,3.82,17.84,5.73,26.77.84,3.92,1.69,7.84,2.51,11.7-1.12,1.51-2.78,1.81-4.25,2.14-5.82,1.33-11.67,2.48-17.52,3.68-1.62.33-3.25.62-4.96.94-1.41-1.7-1.24-3.89-1.72-5.83-1.17-4.76-2.07-9.58-3.09-14.38-1.38-6.43-2.79-12.85-4.14-19.29-1.03-4.9-1.95-9.81-2.98-14.71-.34-1.62-.89-3.2-1.35-4.8-1.07-.1-2.03-.19-3.25-.31-.4-1.27-.9-2.53-1.19-3.85-1.44-6.62-2.8-13.26-4.22-19.88-1.76-8.26-3.56-16.51-5.33-24.76-.29-1.34-.52-2.69-.8-4.17h-3.2c-1.74-6.41-2.78-12.88-4.16-19.27-1.38-6.4-3.05-12.75-4.01-19.53,1.84-.49,3.51-.92,5.25-1.38-3.16-16.32-6.97-32.45-10.03-48.75ZM132.77,355.74c8.97-1.91,17.7-3.76,26.4-5.61-3.49-16.13-6.93-31.97-10.39-47.95-3.23-.2-5.99,1.3-8.95,1.73-2.89.42-5.76,1.07-8.58,1.84-2.87.79-5.93.97-8.66,2.35,1.62,8.01,3.01,15.9,4.84,23.69,1.85,7.87,3.06,15.9,5.34,23.96ZM167.19,388.18c-.16-1.24-.21-2.02-.38-2.78-.69-3.15-1.45-6.29-2.12-9.45-1.64-7.76-3.26-15.53-4.87-23.29-.2-.96-.77-1.33-1.69-1.23-.39.04-.77.16-1.15.24-5.35,1.11-10.71,2.17-16.05,3.34-4.56,1-9.1,2.12-13.76,3.21,2.47,11.78,4.89,23.36,7.34,34.94.12.55.48,1.05.82,1.74,10.57-2.23,21.07-4.44,31.85-6.72ZM174.23,423.92c-2.52-11.81-4.93-23.08-7.41-34.64-4.83,1.06-9.46,2.14-14.13,3.08-4.75.96-9.52,1.8-14.22,3.23,2.49,11.6,4.92,22.88,7.39,34.41,9.54-2.05,18.86-4.05,28.36-6.09ZM136.02,244.41c-7.87,1.67-15.67,3.32-23.59,5,.77,6.46,2.94,12.59,3.65,18.99-1.55.45-2.82.82-4.08,1.19,1.2,5.73,2.36,11.28,3.56,17.02,2.08-.26,4.04-.37,5.92-.77,6.87-1.48,13.72-3.06,20.57-4.62,1.75-.4,2.05-.79,1.73-2.36-.59-2.88-1.23-5.75-1.85-8.62-1.77-8.23-3.53-16.47-5.31-24.7-.08-.36-.35-.67-.59-1.12ZM186.49,482.04c-8.39,1.8-16.53,3.55-24.86,5.33,1.36,6.4,2.69,12.68,4.05,19.1.67,0,1.36.11,2.01-.02,5.93-1.15,11.86-2.26,17.75-3.59,1.81-.41,3.98-.24,5.21-2.1-1.36-6.11-2.72-12.2-4.17-18.73ZM146.09,431.2c1.22,5.8,2.35,11.14,3.53,16.73,2.41-.41,4.64-.7,6.83-1.18,2.67-.59,5.26-1.63,7.95-1.94,4.67-.52,9.12-1.93,13.72-2.64-1.23-5.79-2.42-11.41-3.61-17.01-.76,0-1.27-.08-1.74.01-2.1.44-4.19.95-6.29,1.41-.67.15-1.35.37-2.02.32-.92-.07-.41,1.15-1.45,1.22-3.31.23-6.62.67-9.89,1.24-2.28.4-4.5,1.15-7.03,1.82ZM153.38,448.42c1.33,6.26,2.59,12.25,3.93,18.55,8.31-1.76,16.47-3.48,24.8-5.24-1.03-6.46-2.47-12.53-3.89-18.57-8.36,1.77-16.54,3.5-24.84,5.26ZM144.29,281.84c-8,1.74-15.77,3.43-23.52,5.11-.02.46-.1.77-.04,1.05,1.26,6.02,2.54,12.04,3.82,18.05,5.27-.69,22.13-4.64,23.92-5.59-1.39-6.18-2.77-12.36-4.18-18.62ZM161.49,486.36c2.95-.64,5.69-1.25,8.45-1.82,4.96-1.03,9.92-2.02,14.89-3.04.91-.19,1.35-.76,1.24-1.7-.07-.58-.16-1.17-.27-1.74-.51-2.48-1.01-4.97-1.57-7.45-.59-2.62-1.25-5.23-1.86-7.8-8.42,1.68-16.63,3.26-24.83,5.32,1.33,6.13,2.62,12.04,3.96,18.23ZM135.97,243.38c-1.17-5.51-2.29-10.84-3.43-16.16-.42-1.98-.52-1.93-2.56-1.45-3.99.93-8,1.75-12,2.63-2.76.61-5.53,1.22-8.28,1.89-.52.13-.98.52-1.44.78,1.3,5.88,2.57,11.59,3.84,17.36,7.94-1.68,15.83-3.34,23.87-5.04Z"/>
  <path class="cls-1" d="M400.07,240.87c8.5-1.84,16.83-3.64,25.39-5.49,1.68,7.58,3.32,15.03,5.01,22.67,1.24-.16,2.27-.29,3.32-.43,1.03.48,1.2,1.54,1.4,2.46,1.04,4.8,1.99,9.61,3.01,14.41,1.23,5.76,2.49,11.51,3.76,17.26.31,1.43.67,2.85,1.04,4.44-.9.4-1.76.78-2.86,1.26,1.19,5.6,2.39,11.22,3.62,16.99,1.02.05,1.98.11,3.21.17.62,2.63,1.3,5.28,1.87,7.94,1.51,7.01,2.99,14.03,4.45,21.05.72,3.46,1.37,6.93,2.11,10.38,1.06,4.89,2.22,9.76,3.27,14.66,1.53,7.1,3.01,14.21,4.51,21.32,1.02,4.81,2.04,9.61,3.07,14.41,1.41,6.63,2.83,13.25,4.25,19.88.42,1.98.41,1.98-1.47,2.74-.27.11-.51.27-.95.5,1.39,6.57,2.78,13.15,4.2,19.89-9,1.94-17.71,3.82-26.7,5.76-.32-.88-.71-1.65-.88-2.47-1.3-5.95-2.56-11.91-3.83-17.86-1.71-7.97-3.42-15.93-5.14-23.9-1.43-6.62-2.88-13.23-4.28-19.86-.99-4.71-1.86-9.44-2.87-14.14-.78-3.65-1.73-7.26-2.52-10.91-1.56-7.19-3.07-14.4-4.6-21.6-1.39-6.53-2.79-13.06-4.2-19.59-1.54-7.1-3.12-14.19-4.65-21.29-1.32-6.14-2.59-12.3-3.86-18.45-.73-3.55-1.35-7.13-2.14-10.67-2.1-9.49-4.27-18.96-6.37-28.45-.21-.93-.12-1.92-.17-3.09ZM429.97,376.14c9.45-2.03,18.58-3.99,27.71-5.96-3.9-18.15-7.74-36.04-11.59-53.94-.02-.09-.11-.17-.19-.23-.08-.06-.18-.09-.56-.27-8.7,1.83-17.65,3.72-26.62,5.61-.06.37-.19.67-.14.93,3.77,17.91,7.56,35.81,11.38,53.85ZM401.22,241.89c1.6,7.43,3.11,14.39,4.66,21.58,3.99-.67,7.87-1.57,11.74-2.47,3.84-.9,7.81-1.29,11.59-2.56-1.76-7.37-3.01-14.55-4.8-21.61-7.83,1.71-15.36,3.35-23.19,5.05ZM441.69,295.97c-1.31-6.14-2.57-12.05-3.88-18.13-9.29,2.09-18.45,3.78-27.58,5.99,1.34,6.17,2.62,12.09,3.93,18.12,9.17-1.99,18.31-3.98,27.52-5.98ZM433.76,259.06c-8.87,1.14-17.33,3.6-25.98,5.05-.55.09-1.06.47-1.65.75,1.29,5.92,2.56,11.72,3.89,17.8,9.31-1.89,18.47-3.63,27.55-5.91-1.28-5.95-2.51-11.68-3.81-17.69ZM430.27,377.16c1.33,6.08,2.59,11.8,3.84,17.52,9.24-2.01,18.19-3.96,27.45-5.97-1.18-6.04-2.3-11.83-3.8-17.44-9.25,1.98-18.18,3.89-27.49,5.89ZM437.88,413.29c2.91-.66,5.46-1.38,8.05-1.76,1.98-.29,3.8-1.46,5.61-1.53,3.35-.14,6.48-1.15,9.71-1.7,1.4-.24,3.18-.12,4.28-1.63-1.22-5.53-2.44-11.05-3.66-16.57-.87,0-1.48-.11-2.03.02-4.08.96-8.16,1.98-12.24,2.96-.85.2-1.71.42-2.57.5-3.51.33-6.9,1.15-10.46,2.1.46,5.98,2.58,11.53,3.31,17.61ZM469.58,425.6c-1.29-5.92-2.51-11.52-3.77-17.3-9.31,1.98-18.25,4.33-27.63,5.78,1.3,5.93,2.57,11.71,3.86,17.61,3.71-.7,7.31-1.15,10.76-2.11,2.49-.69,4.88-1.46,7.52-1.71,3.06-.29,6.05-1.44,9.26-2.26ZM466.69,427.39c-.93.34-1.37.56-1.84.66-7.06,1.44-14.13,2.86-21.19,4.28-.92.19-1.4.71-1.19,1.68,1.27,5.89,2.54,11.79,3.82,17.73,8.2-1.81,16.29-3.6,24.51-5.42-1.37-6.3-2.7-12.47-4.1-18.92ZM442.39,315.24c-.13-1.14-.16-2.11-.36-3.05-.87-4.12-1.82-8.22-2.68-12.34-.41-1.99-.74-2.23-2.8-1.74-3.04.73-6.06,1.51-9.11,2.16-4.28.91-8.58,1.73-13.12,2.64,1.3,5.94,2.56,11.73,3.84,17.61,8.19-1.78,16.08-3.5,24.23-5.27Z"/>
  <path class="cls-1" d="M91.61,169.51c-6.37-12.52-11.56-25.41-17.81-37.95,1.96-1.21,4.15-1.37,6.19-1.86,5.72-1.39,11.48-2.58,17.23-3.83,5.18-1.13,10.36-2.26,15.54-3.37,5.95-1.28,11.9-2.55,17.86-3.81,6.34-1.33,12.69-2.64,19.04-3.96,1.63-.34,3.24-.8,4.88-1.06,1.11-.18,1.98-.56,2.87-1.31.77-.65,1.94-.92,2.98-1.14,10.93-2.31,21.87-4.58,32.81-6.86.48-.1,1.04-.42,1.42-.27,3.53,1.35,6.74-.43,10.03-1.05,7.9-1.51,15.76-3.27,23.63-4.95,6.43-1.37,12.86-2.78,19.29-4.15,6.34-1.35,12.69-2.64,19.02-4.01,1.07-.23,1.73.04,2.1,1.04.13.35.24.7.34,1,5.42-1.09,10.7-2.14,16.25-3.26,2.21,7.22,3.17,14.72,5.07,22.3-1.64.47-3.1.99-4.6,1.31-10.17,2.2-20.35,4.38-30.54,6.51-9.03,1.89-18.09,3.67-27.12,5.55-6.92,1.44-13.82,2.96-20.73,4.45-7.58,1.63-15.16,3.29-22.74,4.91-6.24,1.33-12.5,2.6-18.75,3.91-8.17,1.71-16.34,3.41-24.5,5.13-5.86,1.23-11.71,2.52-17.58,3.73-2.01.41-4.06.62-6.08,1-1.78.34-3.27,1.22-4.61,2.48-6.19,5.84-12.42,11.63-18.66,17.41-.78.73-1.71,1.3-2.83,2.14ZM157.37,114.31c-27.36,5.81-54.59,11.58-82.05,17.41,1.43,3.21,2.72,6.17,4.07,9.11,1.39,3.04,2.82,6.07,4.27,9.09,1.41,2.94,2.9,5.83,4.27,8.78,1.38,2.98,2.45,6.11,4.11,9.04,6.03-5.54,11.85-10.86,17.64-16.2,4.84-4.46,3.65-4.48,10.61-5.51,6.57-.98,13.04-2.66,19.54-4.08,7.45-1.63,14.89-3.31,22.45-4.99-1.63-7.55-3.26-15.06-4.9-22.65ZM163.23,136.88c12.21-2.79,24.41-4.99,36.74-7.97-1.73-8.08-3.4-15.86-5.07-23.62-.72,0-1.12-.06-1.5,0-4.02.79-8.05,1.57-12.06,2.43-7.26,1.55-14.52,3.14-21.78,4.72-1.12.24-1.52.8-1.27,1.9.83,3.71,1.73,7.41,2.55,11.12.8,3.62,1.52,7.25,2.39,11.4ZM201,128.81c11.75-2.46,23.28-4.88,34.9-7.32-1.69-7.79-3.31-15.25-4.94-22.76-11.69,2.49-23.14,4.92-34.85,7.41,1.64,7.61,3.26,15.1,4.89,22.67ZM236.84,121.27c6.26-1.34,12.17-2.61,18.17-3.9-1.61-7.6-3.21-15.11-4.81-22.64-5.94,1.21-11.67,2.38-17.4,3.58-.33.07-.59.46-.78.61,1.61,7.48,3.19,14.81,4.81,22.35ZM272.35,113.77c-1.62-7.57-3.23-15.08-4.88-22.75-5.6,1.41-11.06,2.16-16.24,3.6,1.61,7.67,3.16,15.01,4.75,22.55,5.45-1.13,10.8-2.24,16.36-3.4ZM288.58,110.28c-.28-1.59-.46-2.95-.77-4.27-.57-2.48-1.32-4.91-1.79-7.41-.54-2.87-.86-5.78-1.27-8.65-4.8,1-9.28,1.94-13.77,2.86-1.47.3-1.76.68-1.61,2.24.03.29.05.59.11.88,1.25,5.8,2.51,11.59,3.81,17.6,4.96-1.06,9.9-2.11,15.3-3.26Z"/>
  <path class="cls-1" d="M247.87,511.39c9.45-2,18.72-4.02,28.02-5.92,9.33-1.91,18.69-3.67,28.03-5.58,9.33-1.91,18.63-3.93,27.95-5.89,9.32-1.97,18.62-4.02,27.96-5.86,9.33-1.84,18.58-4.1,28.27-5.45.45,1.58.98,3.04,1.29,4.55,1.35,6.44,2.56,12.91,3.98,19.33.56,2.5-.34,3.09-2.34,3.51-8.07,1.69-16.16,3.25-24.24,4.89-5.77,1.17-11.53,2.4-17.29,3.6-5.47,1.15-10.94,2.32-16.42,3.44-6.35,1.3-12.71,2.54-19.06,3.85-9.23,1.9-18.46,3.82-27.69,5.74-8.17,1.7-16.33,3.45-24.5,5.13-2.68.55-5.39.96-8.41,1.48-1.83-8.85-3.63-17.57-5.55-26.83ZM308.85,525.59c-.15-1.24-.21-2.22-.4-3.17-1.34-6.5-2.72-12.99-4.07-19.49-.31-1.5-.75-1.89-2.2-1.62-2.21.42-4.41.93-6.62,1.37-4.7.94-9.44,1.76-14.11,2.86-1.44.34-3.2.12-4.33,1.58,1.65,7.9,3.3,15.81,5.02,24.02,8.96-1.87,17.77-3.7,26.71-5.56ZM331.6,495.25c-8.98,1.87-17.76,3.69-26.71,5.55,1.68,8.27,3.39,16.23,5.16,24.51,9.01-1.82,17.72-3.59,26.68-5.4-1.41-8.37-3.21-16.44-5.13-24.66ZM364.67,514.05c-1.73-8.37-3.4-16.46-5.08-24.55-9.03,1.87-17.81,3.69-26.84,5.56,1.73,8.25,3.42,16.34,5.14,24.58,8.9-1.86,17.6-3.68,26.78-5.6ZM276.02,506.72c-8.92,1.85-17.6,3.64-26.5,5.48,1.36,8.39,3.3,16.45,5,24.61,9.08-1.87,17.86-3.67,26.61-5.47-1.72-8.28-3.38-16.28-5.11-24.62ZM360.67,489.47c1.81,8.24,3.06,16.29,5.23,24.31,8.53-1.73,16.86-3.41,25.17-5.11.45-.09.84-.43,1.27-.66-1.69-8.05-3.34-15.97-5.07-24.2-8.86,1.83-17.62,3.56-26.6,5.66Z"/>
  <path class="cls-1" d="M427.43,230.37c-1.92,1.13-15.73,4.08-27.51,5.93-.31-1.18-.7-2.38-.94-3.6-.78-3.95-1.52-7.9-2.24-11.86-.67-3.67-1.28-7.36-1.94-11.03-.66-3.67-1.31-7.35-2.02-11.01-1.1-5.68-2.26-11.36-3.38-17.04-.95-4.82-1.89-9.63-2.79-14.46-.35-1.91-.57-3.84-.87-5.93,1.83-.47,3.42-.88,5.32-1.37-.83-4.13-1.66-8.23-2.48-12.34-.93-4.62-1.83-9.24-2.79-13.86-.4-1.92-.93-3.82-1.34-5.74-1.5-7.01-2.99-14.02-4.45-21.03-.42-2,.13-2.93,2.22-3.48,2.56-.68,5.16-1.23,7.75-1.78,4.8-1.03,9.61-2.03,14.43-3.01.57-.12,1.18-.02,1.93-.02,1.24,2.51,1.4,5.39,2.05,8.12.84,3.53,1.39,7.13,2.12,10.69,1.9,9.23,3.82,18.46,5.74,27.69.62,2.98,1.26,5.95,1.93,9.11.55.06,1.11.13,1.68.2,1.02.11,1.56.64,1.72,1.7.78,5.05,1.6,10.09,2.43,15.14.4,2.42.85,4.84,1.27,7.26.3,1.74.59,3.48.94,5.53-2.45.55-4.9,1.1-7.53,1.69-.47,1.84.39,3.61.73,5.38,1.84,9.45,3.82,18.87,5.76,28.3.73,3.55,1.48,7.1,2.26,10.83ZM426.05,229.94c-3.03-14.68-6.03-29.22-9.06-43.85-7.84,1.48-15.5,2.91-23.16,4.38-.45.09-.86.43-1.23.63.96,5.11,1.9,10.1,2.83,15.1.87,4.72,1.7,9.44,2.56,14.16.74,4.04,1.47,8.09,2.25,12.12.16.81.5,1.59.77,2.39,4.34-.85,8.38-1.64,12.41-2.43,4.13-.81,8.25-1.63,12.64-2.49ZM420.21,155.74c-5.85.18-11.15,2-16.61,2.95-5.56.98-11.02,2.29-16.34,3.73.43,2.63.75,4.96,1.19,7.26,1.11,5.87,2.26,11.74,3.43,17.6.16.82.51,1.6.82,2.52,10.79-2.17,21.28-4.29,32-6.45-1.52-9.33-2.99-18.4-4.49-27.62ZM386.83,132.33c.92,4.74,1.67,9.37,2.75,13.92,1.07,4.52,1.53,9.2,3,13.61,8.22-1.69,16.14-3.33,24.41-5.03-1.99-9.24-3.7-18.41-5.83-27.49-8.09,1.66-15.92,3.27-24.33,4.99ZM410.91,126.33c-.37-4.59-1.71-8.91-2.63-13.28-.91-4.36-1.36-8.87-2.98-13.05-8.17,1.69-16.1,3.34-24.29,5.03,1.69,8.32,3.35,16.55,5.04,24.77.11.55.49,1.04.72,1.53,8.06-1.67,15.97-3.31,24.13-5Z"/>
  <path class="cls-1" d="M292.95,93.38c9.19-1.96,18.18-3.88,27.31-5.82-1.21-6.43-2.37-12.55-3.58-18.98,6.99-1.67,13.72-3.43,20.52-4.86,6.79-1.43,13.51-3.26,20.66-4.5.66,2.53,1.32,4.78,1.81,7.06,1.52,7.01,2.88,14.05,4.51,21.03.37,1.57.1,2.68-.8,3.82-.18.23-.38.45-.57.68-1.36,1.67-2.42,3.83-4.16,4.87-1.74,1.05-4.15.99-6.27,1.44-10.66,2.27-21.32,4.57-31.98,6.83-7.96,1.69-15.93,3.35-24.16,5.09-1.49-5.43-2.73-10.83-3.29-16.66ZM324.69,102.51c1.09-.14,2.06-.18,2.99-.38,9.95-2.14,19.89-4.29,29.83-6.47.54-.12,1.17-.39,1.49-.8,1.48-1.95,2.87-3.97,4.18-5.81-2.06-9.62-4.06-18.98-6.12-28.58-13.26,3.03-26.28,6.01-39.3,8.98,2.34,11.17,4.63,22.12,6.92,33.06ZM297.06,108.25c3.08-.11,5.96-1.1,8.89-1.74,2.85-.63,5.7-1.28,8.58-1.8,2.97-.54,5.98-.9,8.99-2.13-.65-4.71-1.98-9.15-2.86-13.73-8.88,1.89-17.52,3.73-26.4,5.61.64,4.72,1.81,9.13,2.8,13.79Z"/>
  <path class="cls-1" d="M403.36,477.59c4.19-.92,7.91-1.77,11.64-2.56,6.15-1.3,12.31-2.56,18.46-3.84,4.32-.91,8.64-1.86,12.97-2.74,1.87-.38,2.58.04,2.96,1.83,1.06,4.99,2.04,10.01,3.07,15.01.55,2.69,1.15,5.37,1.69,8.07.09.47.01.97.01,1.71-14.87,3.82-30.07,6.17-45.33,9.67-1.76-9.07-3.89-17.8-5.47-27.13ZM409.75,502.9c.74,0,1.15.07,1.53-.01,5.26-1.13,10.51-2.33,15.78-3.43,7.95-1.66,15.92-3.23,23.88-4.88.71-.15,1.36-.54,2.11-.85-.25-.6-.46-.94-.53-1.32-1.44-7-2.86-14-4.28-21.01-.32-1.58-.61-1.81-2.18-1.43-1.14.27-2.26.65-3.4.89-8.81,1.82-17.64,3.6-26.45,5.42-3.72.77-7.43,1.6-11.46,2.47,1.69,8.14,3.33,16.06,5.01,24.15Z"/>
  <path class="cls-2" d="M226.29,201.59c1.7,8.12,3.35,16.02,5.06,24.15-3.1.67-6.04,1.32-8.98,1.93-5.35,1.11-10.7,2.21-16.05,3.3-5.45,1.11-10.91,2.17-16.35,3.31-5.82,1.22-11.63,2.51-17.45,3.77-.48.1-.94.26-1.42.32-.83.11-1.33-.32-1.49-1.1-1.03-4.98-2.05-9.97-3.05-14.95-.54-2.66-1.04-5.34-1.55-7.98,20.38-4.24,40.69-8.46,61.29-12.74Z"/>
  <path class="cls-2" d="M274.11,258.61c-1.4-6.6-2.79-13.06-4.14-19.53-1.35-6.47-2.66-12.95-4-19.48,12.71-2.65,25.3-5.27,38.01-7.92,2.7,13.03,5.38,25.96,8.09,39.08-12.56,2.6-24.99,5.17-37.96,7.86Z"/>
  <path class="cls-2" d="M364.28,201.07c2.28,12.45,5.29,24.59,7.53,37.05-6.36,1.58-12.5,2.73-18.63,3.94-6.04,1.19-12.05,2.6-18.37,3.98-2.58-12.31-5.15-24.6-7.79-37.16,12.33-2.59,24.63-5.17,37.25-7.82Z"/>
  <path class="cls-2" d="M228.94,227.32c2.77,13.02,5.48,25.81,8.27,38.91-5.91,1.41-11.84,2.52-17.76,3.74-5.83,1.2-11.6,2.68-17.65,3.61-2.73-13.1-5.41-25.98-8.1-38.94,11.82-2.46,23.37-4.86,35.25-7.32Z"/>
  <path class="cls-2" d="M229.96,227.21c11.69-2.66,23.24-4.93,34.99-7.35,2.74,13.07,5.43,25.94,8.16,38.97-11.76,2.36-23.18,4.97-34.92,7.18-2.76-13-5.46-25.74-8.23-38.8Z"/>
  <path class="cls-2" d="M337.58,178.38c2.16,8.51,3.5,17.16,5.64,25.97-12.68,2.68-25.16,5.32-37.95,8.02-2.15-8.61-3.53-17.25-5.57-26.03,12.55-2.64,25.05-5.26,37.88-7.95Z"/>
  <path class="cls-2" d="M170.36,239.53c7.29-1.52,14.61-3.05,22.22-4.64,2.98,12.88,5.35,25.81,8.27,38.91-2.8.65-5.6,1.35-8.42,1.95-3.83.82-7.67,1.57-11.51,2.34-.39.08-.79.07-1.18.12-1.06.15-1.65-.26-1.88-1.35-1.15-5.46-2.41-10.89-3.5-16.36-1.38-6.89-2.64-13.8-4-20.97Z"/>
  <path class="cls-2" d="M264.47,193.63c11.67-2.43,22.86-4.76,34.23-7.13,1.7,8.05,3.34,15.84,5.02,23.78-1.96,1.43-4.42,1.2-6.61,1.84-2.23.66-4.6.87-6.9,1.33-2.2.44-4.38.96-6.57,1.44-2.29.5-4.57,1.01-6.87,1.46-2.29.45-4.6.85-7.18,1.32-2.03-7.96-3.38-15.99-5.13-24.04Z"/>
  <path class="cls-2" d="M313.09,250.24c-1.47-6.74-2.93-13.3-4.33-19.88-1.07-5.06-2.08-10.14-3.08-15.22-.29-1.44.13-1.94,1.59-2.24,5.54-1.16,11.08-2.34,16.63-3.48.66-.14,1.37-.02,2.19-.02,1.08,5.12,2.18,10.26,3.25,15.4.9,4.3,1.77,8.61,2.67,12.91.48,2.29,1.02,4.57,1.47,6.87.26,1.32-.14,1.79-1.44,2.06-5.56,1.16-11.12,2.34-16.69,3.47-.74.15-1.52.09-2.27.12Z"/>
  <path class="cls-2" d="M338.76,178.15c6.7-1.38,13-2.68,19.5-4.02,1.63,4.23,1.97,8.64,3,12.88,1.03,4.26,1.79,8.6,2.7,13.09-6.74,1.33-13.23,2.97-19.93,3.97-1.78-8.74-3.5-17.22-5.27-25.91Z"/>
  <path class="cls-2" d="M227.3,201.4c5.91-1.23,11.55-2.39,17.43-3.61.69,2.96,1.36,5.69,1.95,8.44.94,4.39,1.82,8.79,2.73,13.18.08.38.21.76.25,1.14.1.91-.24,1.53-1.19,1.73-4.77.99-9.54,2.01-14.32,2.98-1.43.29-1.95-.15-2.24-1.59-.57-2.77-1.2-5.53-1.77-8.3-.94-4.57-1.86-9.14-2.83-13.98Z"/>
  <path class="cls-2" d="M268.47,218c-5.74,1.21-11.45,2.42-17.48,3.69-1.68-7.9-3.36-15.79-5.07-23.82,2.81-1.51,5.81-1.46,8.6-2.17,2.74-.69,5.55-1.13,8.54-1.72,1.48,2.27,1.19,5.12,1.98,7.67.83,2.69,1.25,5.51,1.82,8.27.55,2.66,1.06,5.33,1.6,8.08Z"/>
  <path class="cls-2" d="M132.77,355.74c-2.28-8.06-3.49-16.08-5.34-23.96-1.83-7.79-3.22-15.68-4.84-23.69,2.73-1.38,5.79-1.56,8.66-2.35,2.82-.77,5.69-1.42,8.58-1.84,2.96-.43,5.72-1.93,8.95-1.73,3.46,15.98,6.89,31.82,10.39,47.95-8.7,1.85-17.43,3.71-26.4,5.61Z"/>
  <path class="cls-2" d="M167.19,388.18c-10.79,2.27-21.28,4.49-31.85,6.72-.33-.69-.7-1.19-.82-1.74-2.45-11.58-4.87-23.16-7.34-34.94,4.67-1.1,9.2-2.21,13.76-3.21,5.34-1.17,10.7-2.23,16.05-3.34.38-.08.76-.2,1.15-.24.92-.1,1.49.27,1.69,1.23,1.61,7.77,3.22,15.53,4.87,23.29.67,3.16,1.43,6.3,2.12,9.45.17.76.21,1.55.38,2.78Z"/>
  <path class="cls-2" d="M174.23,423.92c-9.5,2.04-18.82,4.04-28.36,6.09-2.48-11.54-4.9-22.82-7.39-34.41,4.7-1.44,9.47-2.27,14.22-3.23,4.66-.95,9.3-2.03,14.13-3.08,2.47,11.56,4.88,22.83,7.41,34.64Z"/>
  <path class="cls-2" d="M136.02,244.41c.24.44.51.76.59,1.12,1.78,8.23,3.54,16.47,5.31,24.7.62,2.87,1.26,5.74,1.85,8.62.32,1.57.03,1.97-1.73,2.36-6.85,1.56-13.7,3.14-20.57,4.62-1.89.41-3.84.51-5.92.77-1.2-5.74-2.36-11.29-3.56-17.02,1.26-.37,2.53-.74,4.08-1.19-.71-6.4-2.88-12.52-3.65-18.99,7.92-1.68,15.72-3.33,23.59-5Z"/>
  <path class="cls-2" d="M186.49,482.04c1.46,6.53,2.81,12.62,4.17,18.73-1.23,1.85-3.4,1.69-5.21,2.1-5.89,1.32-11.83,2.43-17.75,3.59-.65.13-1.35.02-2.01.02-1.36-6.43-2.7-12.7-4.05-19.1,8.33-1.79,16.47-3.53,24.86-5.33Z"/>
  <path class="cls-2" d="M146.09,431.2c2.53-.67,4.75-1.42,7.03-1.82,3.27-.57,6.58-1.02,9.89-1.24,1.04-.07.53-1.28,1.45-1.22.66.05,1.35-.17,2.02-.32,2.1-.46,4.19-.97,6.29-1.41.47-.1.98-.01,1.74-.01,1.19,5.59,2.38,11.21,3.61,17.01-4.6.71-9.05,2.12-13.72,2.64-2.69.3-5.29,1.35-7.95,1.94-2.19.48-4.42.77-6.83,1.18-1.18-5.6-2.31-10.93-3.53-16.73Z"/>
  <path class="cls-2" d="M153.38,448.42c8.31-1.76,16.49-3.49,24.84-5.26,1.42,6.04,2.86,12.1,3.89,18.57-8.34,1.76-16.49,3.48-24.8,5.24-1.33-6.3-2.6-12.29-3.93-18.55Z"/>
  <path class="cls-2" d="M144.29,281.84c1.4,6.26,2.79,12.44,4.18,18.62-1.79.95-18.65,4.9-23.92,5.59-1.27-6.01-2.55-12.03-3.82-18.05-.06-.28.02-.59.04-1.05,7.75-1.68,15.52-3.37,23.52-5.11Z"/>
  <path class="cls-2" d="M161.49,486.36c-1.35-6.19-2.63-12.1-3.96-18.23,8.2-2.06,16.41-3.64,24.83-5.32.62,2.57,1.27,5.18,1.86,7.8.56,2.47,1.06,4.96,1.57,7.45.12.58.2,1.16.27,1.74.12.94-.33,1.51-1.24,1.7-4.96,1.02-9.93,2.01-14.89,3.04-2.76.57-5.51,1.19-8.45,1.82Z"/>
  <path class="cls-2" d="M135.97,243.38c-8.04,1.7-15.93,3.36-23.87,5.04-1.28-5.77-2.54-11.48-3.84-17.36.46-.26.92-.65,1.44-.78,2.75-.67,5.51-1.28,8.28-1.89,4-.88,8.02-1.69,12-2.63,2.05-.48,2.14-.53,2.56,1.45,1.14,5.32,2.26,10.65,3.43,16.16Z"/>
  <path class="cls-2" d="M429.97,376.14c-3.82-18.04-7.6-35.95-11.38-53.85-.06-.26.08-.56.14-.93,8.96-1.89,17.92-3.77,26.62-5.61.38.18.48.21.56.27.08.06.17.14.19.23,3.85,17.89,7.69,35.79,11.59,53.94-9.13,1.96-18.26,3.93-27.71,5.96Z"/>
  <path class="cls-2" d="M401.22,241.89c7.83-1.71,15.35-3.35,23.19-5.05,1.79,7.05,3.04,14.24,4.8,21.61-3.78,1.27-7.75,1.66-11.59,2.56-3.87.9-7.75,1.8-11.74,2.47-1.55-7.19-3.05-14.15-4.66-21.58Z"/>
  <path class="cls-2" d="M441.69,295.97c-9.21,2-18.35,3.99-27.52,5.98-1.31-6.03-2.59-11.95-3.93-18.12,9.13-2.21,18.29-3.9,27.58-5.99,1.3,6.08,2.56,11.99,3.88,18.13Z"/>
  <path class="cls-2" d="M433.76,259.06c1.29,6.02,2.53,11.74,3.81,17.69-9.08,2.27-18.23,4.01-27.55,5.91-1.33-6.08-2.59-11.88-3.89-17.8.59-.28,1.1-.66,1.65-.75,8.65-1.46,17.11-3.91,25.98-5.05Z"/>
  <path class="cls-2" d="M430.27,377.16c9.31-1.99,18.24-3.91,27.49-5.89,1.49,5.61,2.61,11.4,3.8,17.44-9.26,2.01-18.21,3.96-27.45,5.97-1.25-5.72-2.51-11.44-3.84-17.52Z"/>
  <path class="cls-2" d="M437.88,413.29c-.73-6.09-2.85-11.63-3.31-17.61,3.56-.94,6.95-1.77,10.46-2.1.87-.08,1.72-.29,2.57-.5,4.08-.98,8.15-2,12.24-2.96.55-.13,1.16-.02,2.03-.02,1.22,5.52,2.44,11.04,3.66,16.57-1.1,1.51-2.88,1.39-4.28,1.63-3.23.55-6.36,1.56-9.71,1.7-1.81.08-3.64,1.24-5.61,1.53-2.59.38-5.13,1.11-8.05,1.76Z"/>
  <path class="cls-2" d="M469.58,425.6c-3.21.82-6.2,1.97-9.26,2.26-2.64.25-5.02,1.02-7.52,1.71-3.45.96-7.05,1.41-10.76,2.11-1.29-5.9-2.56-11.68-3.86-17.61,9.38-1.45,18.32-3.8,27.63-5.78,1.26,5.78,2.48,11.38,3.77,17.3Z"/>
  <path class="cls-2" d="M466.69,427.39c1.4,6.45,2.74,12.62,4.1,18.92-8.22,1.82-16.31,3.61-24.51,5.42-1.28-5.94-2.56-11.84-3.82-17.73-.21-.97.27-1.49,1.19-1.68,7.07-1.43,14.13-2.85,21.19-4.28.47-.1.91-.32,1.84-.66Z"/>
  <path class="cls-2" d="M442.39,315.24c-8.15,1.77-16.04,3.49-24.23,5.27-1.28-5.87-2.54-11.66-3.84-17.61,4.54-.91,8.84-1.72,13.12-2.64,3.05-.65,6.08-1.43,9.11-2.16,2.06-.5,2.39-.25,2.8,1.74.86,4.12,1.81,8.22,2.68,12.34.2.93.23,1.9.36,3.05Z"/>
  <path class="cls-2" d="M157.37,114.31c1.64,7.59,3.27,15.1,4.9,22.65-7.57,1.68-15,3.37-22.45,4.99-6.5,1.42-12.97,3.1-19.54,4.08-6.96,1.03-5.76,1.05-10.61,5.51-5.79,5.34-11.61,10.66-17.64,16.2-1.66-2.92-2.73-6.06-4.11-9.04-1.37-2.95-2.86-5.85-4.27-8.78-1.45-3.02-2.88-6.05-4.27-9.09-1.35-2.94-2.64-5.9-4.07-9.11,27.46-5.83,54.69-11.6,82.05-17.41Z"/>
  <path class="cls-2" d="M163.23,136.88c-.87-4.15-1.59-7.79-2.39-11.4-.82-3.71-1.72-7.41-2.55-11.12-.25-1.1.15-1.66,1.27-1.9,7.26-1.58,14.51-3.17,21.78-4.72,4.01-.85,8.04-1.64,12.06-2.43.38-.07.78,0,1.5,0,1.66,7.76,3.33,15.54,5.07,23.62-12.33,2.98-24.53,5.18-36.74,7.97Z"/>
  <path class="cls-2" d="M201,128.81c-1.63-7.57-3.25-15.06-4.89-22.67,11.71-2.49,23.16-4.92,34.85-7.41,1.63,7.51,3.25,14.98,4.94,22.76-11.63,2.44-23.15,4.85-34.9,7.32Z"/>
  <path class="cls-2" d="M236.84,121.27c-1.62-7.54-3.2-14.86-4.81-22.35.19-.15.45-.55.78-.61,5.73-1.2,11.46-2.37,17.4-3.58,1.6,7.54,3.2,15.04,4.81,22.64-6.01,1.29-11.92,2.56-18.17,3.9Z"/>
  <path class="cls-2" d="M272.35,113.77c-5.57,1.16-10.91,2.27-16.36,3.4-1.59-7.54-3.13-14.88-4.75-22.55,5.18-1.45,10.64-2.2,16.24-3.6,1.64,7.67,3.25,15.18,4.88,22.75Z"/>
  <path class="cls-2" d="M288.58,110.28c-5.39,1.15-10.34,2.2-15.3,3.26-1.3-6.01-2.56-11.8-3.81-17.6-.06-.29-.08-.58-.11-.88-.14-1.56.14-1.94,1.61-2.24,4.49-.93,8.98-1.86,13.77-2.86.41,2.87.73,5.78,1.27,8.65.47,2.49,1.22,4.93,1.79,7.41.3,1.33.49,2.68.77,4.27Z"/>
  <path class="cls-2" d="M308.85,525.59c-8.94,1.86-17.74,3.69-26.71,5.56-1.71-8.21-3.37-16.13-5.02-24.02,1.13-1.45,2.89-1.24,4.33-1.58,4.67-1.1,9.4-1.92,14.11-2.86,2.21-.44,4.4-.95,6.62-1.37,1.45-.28,1.89.12,2.2,1.62,1.35,6.5,2.73,12.99,4.07,19.49.2.95.25,1.93.4,3.17Z"/>
  <path class="cls-2" d="M331.6,495.25c1.92,8.23,3.71,16.29,5.13,24.66-8.96,1.81-17.67,3.58-26.68,5.4-1.76-8.28-3.48-16.24-5.16-24.51,8.96-1.86,17.73-3.69,26.71-5.55Z"/>
  <path class="cls-2" d="M364.67,514.05c-9.18,1.92-17.88,3.74-26.78,5.6-1.73-8.24-3.42-16.33-5.14-24.58,9.04-1.87,17.82-3.69,26.84-5.56,1.67,8.09,3.35,16.19,5.08,24.55Z"/>
  <path class="cls-2" d="M276.02,506.72c1.73,8.34,3.39,16.34,5.11,24.62-8.75,1.8-17.53,3.61-26.61,5.47-1.7-8.17-3.64-16.22-5-24.61,8.89-1.84,17.57-3.64,26.5-5.48Z"/>
  <path class="cls-2" d="M360.67,489.47c8.99-2.1,17.75-3.83,26.6-5.66,1.72,8.23,3.38,16.15,5.07,24.2-.42.23-.82.57-1.27.66-8.32,1.71-16.64,3.39-25.17,5.11-2.17-8.02-3.43-16.08-5.23-24.31Z"/>
  <path class="cls-2" d="M426.05,229.94c-4.39.87-8.51,1.68-12.64,2.49-4.03.79-8.06,1.58-12.41,2.43-.26-.8-.61-1.57-.77-2.39-.78-4.03-1.51-8.08-2.25-12.12-.86-4.72-1.7-9.44-2.56-14.16-.92-5-1.87-9.99-2.83-15.1.38-.2.78-.54,1.23-.63,7.66-1.47,15.32-2.9,23.16-4.38,3.02,14.63,6.02,29.17,9.06,43.85Z"/>
  <path class="cls-2" d="M420.21,155.74c1.5,9.22,2.97,18.29,4.49,27.62-10.72,2.16-21.21,4.28-32,6.45-.31-.93-.65-1.71-.82-2.52-1.17-5.86-2.32-11.72-3.43-17.6-.44-2.31-.76-4.64-1.19-7.26,5.32-1.45,10.78-2.76,16.34-3.73,5.45-.96,10.76-2.77,16.61-2.95Z"/>
  <path class="cls-2" d="M386.83,132.33c8.41-1.72,16.24-3.33,24.33-4.99,2.13,9.08,3.84,18.26,5.83,27.49-8.27,1.71-16.19,3.34-24.41,5.03-1.47-4.41-1.93-9.09-3-13.61-1.08-4.55-1.83-9.19-2.75-13.92Z"/>
  <path class="cls-2" d="M410.91,126.33c-8.16,1.69-16.07,3.33-24.13,5-.24-.49-.61-.98-.72-1.53-1.69-8.23-3.35-16.46-5.04-24.77,8.18-1.7,16.12-3.34,24.29-5.03,1.62,4.19,2.06,8.69,2.98,13.05.92,4.37,2.26,8.69,2.63,13.28Z"/>
  <path class="cls-2" d="M324.69,102.51c-2.29-10.94-4.59-21.9-6.92-33.06,13.01-2.98,26.04-5.95,39.3-8.98,2.05,9.6,4.06,18.96,6.12,28.58-1.31,1.84-2.7,3.86-4.18,5.81-.31.41-.95.68-1.49.8-9.94,2.18-19.88,4.34-29.83,6.47-.93.2-1.9.25-2.99.38Z"/>
  <path class="cls-2" d="M297.06,108.25c-1-4.65-2.16-9.07-2.8-13.79,8.88-1.89,17.53-3.73,26.4-5.61.88,4.58,2.21,9.02,2.86,13.73-3.01,1.23-6.02,1.59-8.99,2.13-2.87.53-5.72,1.18-8.58,1.8-2.93.64-5.81,1.63-8.89,1.74Z"/>
  <path class="cls-2" d="M409.75,502.9c-1.68-8.09-3.32-16.01-5.01-24.15,4.03-.87,7.74-1.7,11.46-2.47,8.81-1.82,17.64-3.6,26.45-5.42,1.15-.24,2.26-.62,3.4-.89,1.58-.38,1.86-.15,2.18,1.43,1.41,7,2.84,14.01,4.28,21.01.08.37.29.72.53,1.32-.75.31-1.4.71-2.11.85-7.96,1.64-15.93,3.22-23.88,4.88-5.27,1.1-10.52,2.3-15.78,3.43-.38.08-.79.01-1.53.01Z"/>
</svg>